<svg width="152" height="50" viewBox="0 0 152 50" fill="none" xmlns="http://www.w3.org/2000/svg">
<path d="M14.7173 39.4778C12.5194 39.4778 10.5286 39.223 8.74479 38.7133C6.99286 38.1718 5.43204 37.4073 4.06235 36.4199C2.69266 35.4006 1.4663 34.2061 0.383289 32.8364L5.30463 27.2461C6.8973 29.3803 8.48996 30.8137 10.0826 31.5463C11.7071 32.2789 13.3794 32.6453 15.0995 32.6453C15.9596 32.6453 16.74 32.5338 17.4407 32.3108C18.1415 32.0878 18.683 31.7693 19.0653 31.3552C19.4475 30.9093 19.6386 30.3677 19.6386 29.7307C19.6386 29.2529 19.5112 28.8229 19.2564 28.4406C19.0334 28.0584 18.7149 27.7239 18.3008 27.4372C17.8867 27.1506 17.393 26.8957 16.8196 26.6728C16.2462 26.4179 15.641 26.2109 15.004 26.0516C14.3669 25.8605 13.7139 25.7012 13.045 25.5738C11.1975 25.1597 9.5889 24.6501 8.21921 24.0449C6.84952 23.4396 5.7028 22.707 4.77905 21.847C3.88716 20.9551 3.21824 19.9517 2.77229 18.8368C2.32634 17.6901 2.10337 16.416 2.10337 15.0144C2.10337 13.5173 2.43783 12.1476 3.10675 10.9054C3.80752 9.63123 4.73127 8.54821 5.87799 7.65632C7.05656 6.73257 8.41033 6.0318 9.93929 5.554C11.4682 5.04435 13.0609 4.78952 14.7173 4.78952C16.9152 4.78952 18.7945 5.02842 20.3553 5.50622C21.948 5.95217 23.3018 6.60516 24.4166 7.4652C25.5633 8.32524 26.5349 9.36047 27.3312 10.5709L22.3143 15.3967C21.6454 14.5685 20.9128 13.8836 20.1164 13.3421C19.3519 12.8006 18.5238 12.3865 17.6319 12.0999C16.7718 11.8132 15.8799 11.6698 14.9562 11.6698C14.0006 11.6698 13.1724 11.7973 12.4716 12.0521C11.8027 12.2751 11.2771 12.6095 10.8949 13.0555C10.5126 13.4696 10.3215 13.9792 10.3215 14.5844C10.3215 15.1259 10.4808 15.5878 10.7993 15.97C11.1179 16.3523 11.5479 16.7027 12.0894 17.0212C12.6309 17.3079 13.252 17.5627 13.9528 17.7857C14.6536 17.9768 15.3862 18.1361 16.1507 18.2635C17.9026 18.6139 19.4794 19.0757 20.8809 19.6491C22.3143 20.2225 23.5407 20.9232 24.56 21.7514C25.6111 22.5796 26.4075 23.5671 26.949 24.7138C27.5223 25.8286 27.809 27.1346 27.809 28.6317C27.809 30.957 27.2356 32.9319 26.0889 34.5565C24.9741 36.1491 23.4292 37.3755 21.4543 38.2355C19.5112 39.0637 17.2656 39.4778 14.7173 39.4778ZM29.2801 49.5116V13.6288H36.5427L36.8294 19.3146L35.396 18.8846C35.6189 17.8335 36.1604 16.8779 37.0205 16.0178C37.8805 15.1578 38.9635 14.4729 40.2695 13.9633C41.6074 13.4218 43.0089 13.151 44.4742 13.151C46.6402 13.151 48.5673 13.7244 50.2555 14.8711C51.9438 15.986 53.2657 17.5309 54.2213 19.5058C55.2087 21.4488 55.7024 23.7104 55.7024 26.2905C55.7024 28.8388 55.2087 31.1004 54.2213 33.0753C53.2657 35.0502 51.9278 36.611 50.2077 37.7577C48.5195 38.8726 46.5765 39.43 44.3786 39.43C42.9452 39.43 41.5755 39.1593 40.2695 38.6178C38.9635 38.0763 37.8646 37.3436 36.9727 36.4199C36.0808 35.4961 35.4915 34.4928 35.2048 33.4097L36.9727 32.7408V49.5116H29.2801ZM42.5152 32.9797C43.6619 32.9797 44.6653 32.709 45.5253 32.1675C46.3854 31.5941 47.0543 30.8137 47.5321 29.8262C48.0099 28.8388 48.2488 27.6602 48.2488 26.2905C48.2488 24.9527 48.0099 23.79 47.5321 22.8026C47.0543 21.7833 46.3854 21.0029 45.5253 20.4614C44.6971 19.888 43.6937 19.6013 42.5152 19.6013C41.3366 19.6013 40.3173 19.8721 39.4572 20.4136C38.5972 20.9551 37.9283 21.7355 37.4505 22.7548C36.9727 23.7741 36.7338 24.9527 36.7338 26.2905C36.7338 27.6602 36.9727 28.8388 37.4505 29.8262C37.9283 30.8137 38.5972 31.5941 39.4572 32.1675C40.3173 32.709 41.3366 32.9797 42.5152 32.9797ZM57.3833 39V13.6288H65.0281V39H57.3833ZM61.2057 8.61192C59.7723 8.61192 58.6415 8.27746 57.8134 7.60854C57.017 6.90777 56.6189 5.92031 56.6189 4.64618C56.6189 3.49946 57.0329 2.55978 57.8611 1.82716C58.6893 1.09453 59.8042 0.728218 61.2057 0.728218C62.6391 0.728218 63.754 1.07861 64.5503 1.77938C65.3467 2.4483 65.7448 3.4039 65.7448 4.64618C65.7448 5.82475 65.3307 6.78035 64.5026 7.51298C63.7062 8.24561 62.6073 8.61192 61.2057 8.61192ZM79.5215 39.4778C77.0688 39.4778 74.8709 38.9044 72.9279 37.7577C70.9848 36.611 69.4399 35.0502 68.2932 33.0753C67.1784 31.0685 66.6209 28.8069 66.6209 26.2905C66.6209 23.7741 67.1784 21.5284 68.2932 19.5535C69.4399 17.5468 70.9848 15.97 72.9279 14.8233C74.8709 13.6766 77.0688 13.1032 79.5215 13.1032C81.7831 13.1032 83.8536 13.5014 85.7329 14.2977C87.6441 15.0941 89.1572 16.2089 90.272 17.6423L86.1152 22.6115C85.6692 22.1018 85.1436 21.624 84.5384 21.1781C83.9332 20.7321 83.2643 20.3817 82.5317 20.1269C81.799 19.8721 81.0346 19.7447 80.2382 19.7447C79.0278 19.7447 77.9607 20.0313 77.037 20.6047C76.1132 21.1462 75.3965 21.9107 74.8869 22.8981C74.3772 23.8856 74.1224 25.0164 74.1224 26.2905C74.1224 27.5009 74.3772 28.5999 74.8869 29.5873C75.4284 30.5748 76.161 31.3552 77.0847 31.9286C78.0085 32.5019 79.0597 32.7886 80.2382 32.7886C81.0664 32.7886 81.8309 32.693 82.5317 32.5019C83.2324 32.2789 83.8695 31.9604 84.4429 31.5463C85.0481 31.1322 85.6055 30.6226 86.1152 30.0174L90.2242 35.0343C89.1412 36.404 87.6282 37.487 85.6851 38.2833C83.7739 39.0796 81.7194 39.4778 79.5215 39.4778ZM91.0328 39V13.6288H98.6776V39H91.0328ZM94.8552 8.61192C93.4218 8.61192 92.291 8.27746 91.4628 7.60854C90.6665 6.90777 90.2683 5.92031 90.2683 4.64618C90.2683 3.49946 90.6824 2.55978 91.5106 1.82716C92.3388 1.09453 93.4536 0.728218 94.8552 0.728218C96.2886 0.728218 97.4034 1.07861 98.1998 1.77938C98.9961 2.4483 99.3943 3.4039 99.3943 4.64618C99.3943 5.82475 98.9802 6.78035 98.152 7.51298C97.3557 8.24561 96.2567 8.61192 94.8552 8.61192Z" fill="#724204"/>
<path d="M104.141 39V7.2263H111.785V39H104.141ZM99.6492 20.318V13.6288H116.707V20.318H99.6492ZM126.385 39.43C124.251 39.43 122.339 38.8726 120.651 37.7577C118.995 36.611 117.673 35.0502 116.685 33.0753C115.698 31.0685 115.204 28.8069 115.204 26.2905C115.204 23.7104 115.698 21.4329 116.685 19.458C117.673 17.4831 119.027 15.9382 120.747 14.8233C122.467 13.6766 124.426 13.1032 126.624 13.1032C127.834 13.1032 128.933 13.2784 129.92 13.6288C130.94 13.9792 131.832 14.4729 132.596 15.11C133.361 15.7152 134.014 16.4319 134.555 17.2601C135.097 18.0564 135.495 18.9165 135.75 19.8402L134.173 19.6491V13.6288H141.77V39H134.03V32.8842L135.75 32.8364C135.495 33.7283 135.081 34.5724 134.507 35.3687C133.934 36.1651 133.233 36.8658 132.405 37.471C131.577 38.0763 130.653 38.5541 129.634 38.9044C128.614 39.2548 127.531 39.43 126.385 39.43ZM128.487 32.9797C129.666 32.9797 130.685 32.709 131.545 32.1675C132.405 31.626 133.074 30.8615 133.552 29.874C134.03 28.8547 134.268 27.6602 134.268 26.2905C134.268 24.9208 134.03 23.7423 133.552 22.7548C133.074 21.7355 132.405 20.9551 131.545 20.4136C130.685 19.8402 129.666 19.5535 128.487 19.5535C127.34 19.5535 126.337 19.8402 125.477 20.4136C124.649 20.9551 123.996 21.7355 123.518 22.7548C123.04 23.7423 122.801 24.9208 122.801 26.2905C122.801 27.6602 123.04 28.8547 123.518 29.874C123.996 30.8615 124.649 31.626 125.477 32.1675C126.337 32.709 127.34 32.9797 128.487 32.9797Z" fill="#A5740B"/>
<path d="M147.417 39.5256C146.111 39.5256 145.091 39.1593 144.359 38.4266C143.658 37.694 143.307 36.6429 143.307 35.2732C143.307 33.999 143.69 32.9638 144.454 32.1675C145.219 31.3711 146.206 30.973 147.417 30.973C148.723 30.973 149.742 31.3552 150.474 32.1197C151.207 32.8523 151.573 33.9035 151.573 35.2732C151.573 36.5154 151.191 37.5347 150.427 38.3311C149.662 39.1274 148.659 39.5256 147.417 39.5256Z" fill="#E8CA2C"/>
</svg>
