<svg width="124" height="20" viewBox="0 0 124 20" fill="none" xmlns="http://www.w3.org/2000/svg">
<path d="M5.16033 19.3041C4.64541 19.5516 4.06112 19.1178 4.16517 18.5641L5.27239 12.6516L0.572734 8.45657C0.133851 8.06407 0.361964 7.34657 0.950254 7.26907L7.48415 6.39907L10.3976 0.99032C10.6604 0.50282 11.3714 0.50282 11.6342 0.99032L14.5476 6.39907L21.0815 7.26907C21.6698 7.34657 21.8979 8.06407 21.4577 8.45657L16.7594 12.6516L17.8666 18.5641C17.9707 19.1178 17.3864 19.5516 16.8714 19.3041L11.0139 16.4841L5.159 19.3041H5.16033Z" fill="#724204"/>
<g clip-path="url(#clip0_608_2231)">
<path d="M30.506 19.3038C29.9911 19.5513 29.4068 19.1175 29.5109 18.5638L30.6181 12.6513L25.9184 8.45627C25.4796 8.06377 25.7077 7.34627 26.296 7.26877L32.8298 6.39877L35.7433 0.990015C36.0061 0.502515 36.7171 0.502515 36.9799 0.990015L39.8933 6.39877L46.4272 7.26877C47.0155 7.34627 47.2436 8.06377 46.8034 8.45627L42.1051 12.6513L43.2123 18.5638C43.3164 19.1175 42.7321 19.5513 42.2171 19.3038L36.3596 16.4838L30.5047 19.3038H30.506Z" fill="#724204"/>
</g>
<g clip-path="url(#clip1_608_2231)">
<path d="M55.8503 19.3038C55.3354 19.5513 54.7511 19.1175 54.8551 18.5638L55.9623 12.6513L51.2627 8.45627C50.8238 8.06377 51.0519 7.34627 51.6402 7.26877L58.1741 6.39877L61.0875 0.990015C61.3503 0.502515 62.0613 0.502515 62.3241 0.990015L65.2376 6.39877L71.7715 7.26877C72.3598 7.34627 72.5879 8.06377 72.1477 8.45627L67.4493 12.6513L68.5565 18.5638C68.6606 19.1175 68.0763 19.5513 67.5614 19.3038L61.7038 16.4838L55.8489 19.3038H55.8503Z" fill="#724204"/>
</g>
<g clip-path="url(#clip2_608_2231)">
<path d="M81.194 19.3038C80.6791 19.5513 80.0948 19.1175 80.1989 18.5638L81.3061 12.6513L76.6064 8.45627C76.1675 8.06377 76.3957 7.34627 76.9839 7.26877L83.5178 6.39877L86.4313 0.990015C86.6941 0.502515 87.4051 0.502515 87.6679 0.990015L90.5813 6.39877L97.1152 7.26877C97.7035 7.34627 97.9316 8.06377 97.4914 8.45627L92.7931 12.6513L93.9003 18.5638C94.0043 19.1175 93.4201 19.5513 92.9051 19.3038L87.0476 16.4838L81.1927 19.3038H81.194Z" fill="#724204"/>
</g>
<g clip-path="url(#clip3_608_2231)">
<path d="M106.538 19.3038C106.023 19.5513 105.439 19.1175 105.543 18.5638L106.65 12.6513L101.95 8.45627C101.511 8.06377 101.739 7.34627 102.328 7.26877L108.862 6.39877L111.775 0.990015C112.038 0.502515 112.749 0.502515 113.012 0.990015L115.925 6.39877L122.459 7.26877C123.047 7.34627 123.275 8.06377 122.835 8.45627L118.137 12.6513L119.244 18.5638C119.348 19.1175 118.764 19.5513 118.249 19.3038L112.391 16.4838L106.536 19.3038H106.538Z" fill="#724204"/>
</g>
<defs>
<clipPath id="clip0_608_2231">
<rect width="21.3439" height="20" fill="white" transform="translate(25.6875)"/>
</clipPath>
<clipPath id="clip1_608_2231">
<rect width="21.3439" height="20" fill="white" transform="translate(51.0317)"/>
</clipPath>
<clipPath id="clip2_608_2231">
<rect width="21.3439" height="20" fill="white" transform="translate(76.3755)"/>
</clipPath>
<clipPath id="clip3_608_2231">
<rect width="21.3439" height="20" fill="white" transform="translate(101.719)"/>
</clipPath>
</defs>
</svg>
